<svg width="865" height="72" viewBox="0 0 865 72" fill="none" xmlns="http://www.w3.org/2000/svg">
<path d="M74 70H58.3L36.9 14.2L15.1 70H-6.0983e-06L28.8 -4.76837e-06H40.2C43.5333 -4.76837e-06 46 1.66666 47.6 5L74 70ZM97.4953 70H82.9953V31.6H116.795C119.729 31.5333 122.129 30.7 123.995 29.1C125.929 27.4333 126.895 25.1 126.895 22.1C126.895 19.1 125.929 16.7667 123.995 15.1C122.129 13.4333 119.729 12.5667 116.795 12.5H87.9953C86.5953 12.5 85.3953 12.0333 84.3953 11.1C83.462 10.1 82.9953 8.9 82.9953 7.5V-4.76837e-06H118.095C124.895 -4.76837e-06 130.495 2.03333 134.895 6.09999C139.362 10.1667 141.595 15.4667 141.595 22C141.595 28.2667 139.395 33.4333 134.995 37.5C130.595 41.5667 124.962 43.6 118.095 43.6H97.4953V70ZM169.273 70H154.773V31.6H188.573C191.506 31.5333 193.906 30.7 195.773 29.1C197.706 27.4333 198.673 25.1 198.673 22.1C198.673 19.1 197.706 16.7667 195.773 15.1C193.906 13.4333 191.506 12.5667 188.573 12.5H159.773C158.373 12.5 157.173 12.0333 156.173 11.1C155.239 10.1 154.773 8.9 154.773 7.5V-4.76837e-06H189.873C196.673 -4.76837e-06 202.273 2.03333 206.673 6.09999C211.139 10.1667 213.373 15.4667 213.373 22C213.373 28.2667 211.173 33.4333 206.773 37.5C202.373 41.5667 196.739 43.6 189.873 43.6H169.273V70ZM316.773 70H301.073L279.673 14.2L257.873 70H242.773L271.573 -4.76837e-06H282.973C286.307 -4.76837e-06 288.773 1.66666 290.373 5L316.773 70ZM385.969 70H372.869C371.002 70 369.502 69.1 368.369 67.3L357.469 45.9C356.402 44.1 354.902 43.2 352.969 43.2H340.269V70H325.769V31.3H358.669C362.002 31.3 364.635 30.4333 366.569 28.7C368.502 26.9667 369.469 24.7 369.469 21.9C369.469 19.1 368.502 16.8333 366.569 15.1C364.635 13.3667 362.002 12.5 358.669 12.5H330.769C329.369 12.5 328.169 12.0333 327.169 11.1C326.235 10.1 325.769 8.9 325.769 7.5V-4.76837e-06H359.969C366.969 -4.76837e-06 372.735 2 377.269 6C381.869 9.93333 384.169 15.1667 384.169 21.7C384.169 26.3 382.869 30.3 380.269 33.7C377.735 37.0333 374.469 39.5333 370.469 41.2L385.969 70ZM448.141 12.6H397.741V-4.76837e-06H456.541L452.741 9.4C451.675 11.5333 450.141 12.6 448.141 12.6ZM434.741 41.1H397.741V28.9H442.941L439.341 37.9C438.275 40.0333 436.741 41.1 434.741 41.1ZM448.441 70H397.741V57.4H456.541L453.141 66.7C452.141 68.9 450.575 70 448.441 70ZM532.305 61.3L518.705 42.4V-4.76837e-06H532.305V61.3ZM532.305 70H519.105C516.638 70 514.505 68.9667 512.705 66.9L483.805 23.2V70H470.105V-4.76837e-06H480.005C482.405 -4.76837e-06 484.505 1.03333 486.305 3.1C501.571 25.4333 516.905 47.7333 532.305 70ZM615.309 70H599.609L578.209 14.2L556.409 70H541.309L570.109 -4.76837e-06H581.509C584.842 -4.76837e-06 587.309 1.66666 588.909 5L615.309 70Z" fill="white"/>
<path d="M709.027 70H694.527V41.4H667.327L671.227 31.3C672.294 29.1667 673.861 28.1 675.927 28.1H692.027C692.694 28.1 693.261 27.8667 693.727 27.4C694.261 26.8667 694.527 26.2667 694.527 25.6V-4.76837e-06H704.027C705.427 -4.76837e-06 706.594 0.499995 707.527 1.49999C708.527 2.43333 709.027 3.6 709.027 5V70ZM662.327 70H647.827V-4.76837e-06H662.327V70ZM759.08 71.1C749.48 71.1 741.913 68.2667 736.38 62.6C730.846 56.9333 728.08 49.3333 728.08 39.8V0.0999939H742.58V39.8C742.58 45.2 744.08 49.5333 747.08 52.8C750.08 56.0667 754.113 57.7 759.18 57.7C764.313 57.7 768.313 56.0333 771.18 52.7C774.113 49.3667 775.58 45.0667 775.58 39.8V0.0999939H785.08C786.48 0.0999939 787.646 0.599995 788.58 1.6C789.58 2.53333 790.08 3.7 790.08 5.1V39.8C790.08 49.6 787.213 57.2667 781.48 62.8C775.813 68.3333 768.346 71.1 759.08 71.1ZM839.956 70H824.956L828.356 61.2C829.423 59.0667 830.956 58 832.956 58H838.856C842.123 58 844.756 57.2 846.756 55.6C848.823 54 849.856 51.7667 849.856 48.9C849.856 46.2333 848.856 44.0667 846.856 42.4C844.923 40.7333 842.256 39.9 838.856 39.9H825.156L828.156 31.8C829.223 29.6667 830.79 28.6 832.856 28.6H837.456C840.39 28.6 842.823 27.9 844.756 26.5C846.69 25.0333 847.656 22.9667 847.656 20.3C847.656 17.6333 846.69 15.6 844.756 14.2C842.823 12.7333 840.39 12 837.456 12H819.956V70H805.456V-4.76837e-06H838.356C845.29 -4.76837e-06 850.956 1.76666 855.356 5.3C859.823 8.83333 862.056 13.4667 862.056 19.2C862.056 22.4 861.256 25.2667 859.656 27.8C858.123 30.2667 856.056 32.3 853.456 33.9C856.723 35.5 859.356 37.6667 861.356 40.4C863.423 43.0667 864.456 46.1667 864.456 49.7C864.456 55.8333 862.19 60.7667 857.656 64.5C853.19 68.1667 847.29 70 839.956 70Z" fill="#0182FE"/>
</svg>
