<svg width="712" height="634" viewBox="0 0 712 634" fill="none" xmlns="http://www.w3.org/2000/svg">
<path fill-rule="evenodd" clip-rule="evenodd" d="M678.961 503.963L646.608 447.968L618.298 398.891L614.331 391.969L581.978 335.974L549.625 279.979L517.272 223.984L506.307 204.93L484.999 167.989L452.646 111.994L420.293 55.9187L394.317 10.9649L389.337 2.29927C388.52 0.878723 387.006 0 385.367 0H325.95C324.315 0 322.804 0.871777 321.988 2.28537L290.958 55.9187L282.323 70.9299L258.601 111.994L226.325 167.912L193.972 223.987L170.33 264.895L161.619 279.983L129.342 335.978L96.9894 391.973L64.6365 447.968L58.3361 458.933L32.2835 503.963L0 559.958H126.616C128.252 559.958 129.763 559.086 130.582 557.669L161.615 503.959L170.326 488.872L193.968 447.964L226.321 391.969L258.598 335.974L282.32 294.91L290.954 279.899L323.307 223.98L355.66 167.905L388.013 223.98L394.314 234.945L420.29 279.976L452.643 335.971L484.996 391.966L506.304 428.907L517.349 447.961L549.625 503.956L580.658 557.666C581.478 559.083 582.989 559.955 584.625 559.955H711.317L678.964 503.959L678.961 503.963Z" fill="white"/>
<path fill-rule="evenodd" clip-rule="evenodd" d="M394.31 370.328L388.01 359.363L355.657 303.368L323.304 359.363L290.951 415.358L282.316 430.369L258.674 471.357C266.142 468.401 274.151 465.758 282.316 463.58C292.74 460.704 303.625 458.37 314.902 456.814C327.968 454.949 341.58 453.938 355.577 453.938C369.574 453.938 381.786 454.793 394.307 456.505C395.005 456.581 395.63 456.738 396.328 456.818C416.473 459.697 435.603 464.674 452.636 471.36L420.359 415.365L394.307 370.335L394.31 370.328Z" fill="white"/>
<path fill-rule="evenodd" clip-rule="evenodd" d="M355.657 485.916C355.657 526.81 322.509 559.958 281.615 559.958C322.509 559.958 355.657 593.106 355.657 634C355.657 593.106 388.805 559.958 429.699 559.958C388.805 559.958 355.657 526.81 355.657 485.916Z" fill="#0182FE"/>
</svg>
